# xmcd
#
# Track frame offsets: 
#        150
#        25428
#        28161
#        49352
#        67003
#        69787
#        88627
#        95551
#        120761
#        124304
#        144813
#        161094
#        197068
#        200406
#        224030
#
# Disc length: 3216 seconds
#
# Revision: 1
# Processed by: cddbd v1.5.2PL0 Copyright (c) Steve Scherf et al.
# Submitted via: ExactAudioCopy v1.0b1
#
DISCID=de0c8e0f
DTITLE=Various Artist - רישומי פחם בצבע
DYEAR=2010
DGENRE=Blues
TTITLE0=ברי סחרוף - חיית הברזל
TTITLE1=גרגר לכל תולעת
TTITLE2=נעם ענבר ומאיה דוניץ - שמעתי שאת נמצאת
TTITLE3=שאנן סטריט - שיר המקצוע
TTITLE4=טיפה לכל עלה
TTITLE5=עמיר לב - הבן אדם אינו אלא
TTITLE6=כוכב לכל שיבולת
TTITLE7=רונה קינן - בס בבלון
TTITLE8=הורה נופלת מהרגלים
TTITLE9=אוי דיוויז'ן - ס'אוחתו אפעס 3#
TTITLE10=לוס כפרוס - זנב הלטאה של שיר המקצוע
TTITLE11=שלומי שבן - דמוקראסי
TTITLE12=גרעין מאוהב בטיפתו
TTITLE13=נעם רותם - שיר התעסוקה
TTITLE14=בני בשן - פה גדול
EXTD=YEAR: 2010
EXTT0=
EXTT1=
EXTT2=
EXTT3=
EXTT4=
EXTT5=
EXTT6=
EXTT7=
EXTT8=
EXTT9=
EXTT10=
EXTT11=
EXTT12=
EXTT13=
EXTT14=
PLAYORDER=
